<svg width="51" height="25" viewBox="0 0 51 25" fill="none" xmlns="http://www.w3.org/2000/svg">
<rect x="-0.5" y="0.5" width="49" height="24" transform="matrix(-1 0 0 1 49.5 0.000244141)" stroke="white"/>
<path d="M35.1392 12.1467C35.3344 12.342 35.3344 12.6585 35.1392 12.8538L31.9572 16.0358C31.7619 16.231 31.4453 16.231 31.2501 16.0358C31.0548 15.8405 31.0548 15.5239 31.2501 15.3287L34.0785 12.5002L31.2501 9.67182C31.0548 9.47655 31.0548 9.15997 31.2501 8.96471C31.4453 8.76945 31.7619 8.76945 31.9572 8.96471L35.1392 12.1467ZM11.9285 12.0002L34.7856 12.0002V13.0002L11.9285 13.0002V12.0002Z" fill="white"/>
</svg>
