<svg width="161" height="60" viewBox="0 0 161 60" fill="none" xmlns="http://www.w3.org/2000/svg">
<rect x="0.5" width="160" height="60" fill="#1F1E1F"/>
<path d="M55.5 20C59.4588 12.933 79.0052 -3.04449 95.5 20" stroke="white"/>
<path d="M46.02 41L45.99 23.03L37.2 38.21H36.45L27.66 23.09V41H26.16V20H27.45L36.84 36.23L46.23 20H47.49L47.52 41H46.02ZM54.3616 25.34H55.8616V41H54.3616V25.34ZM55.1116 21.53C54.7716 21.53 54.4816 21.42 54.2416 21.2C54.0016 20.96 53.8816 20.67 53.8816 20.33C53.8816 19.99 54.0016 19.7 54.2416 19.46C54.4816 19.22 54.7716 19.1 55.1116 19.1C55.4516 19.1 55.7416 19.22 55.9816 19.46C56.2216 19.68 56.3416 19.96 56.3416 20.3C56.3416 20.64 56.2216 20.93 55.9816 21.17C55.7416 21.41 55.4516 21.53 55.1116 21.53ZM81.6839 25.22C83.6239 25.22 85.1439 25.79 86.2439 26.93C87.3639 28.07 87.9239 29.71 87.9239 31.85V41H86.4239V31.97C86.4239 30.21 85.9939 28.87 85.1339 27.95C84.2739 27.03 83.0739 26.57 81.5339 26.57C79.7739 26.57 78.3739 27.12 77.3339 28.22C76.3139 29.32 75.8039 30.8 75.8039 32.66V41H74.3039V31.97C74.3039 30.21 73.8739 28.87 73.0139 27.95C72.1539 27.03 70.9539 26.57 69.4139 26.57C67.6539 26.57 66.2539 27.12 65.2139 28.22C64.1939 29.32 63.6839 30.8 63.6839 32.66V41H62.1839V25.34H63.6239V28.7C64.1439 27.6 64.9139 26.75 65.9339 26.15C66.9739 25.53 68.2039 25.22 69.6239 25.22C71.0439 25.22 72.2439 25.54 73.2239 26.18C74.2239 26.82 74.9339 27.76 75.3539 29C75.8739 27.84 76.6839 26.92 77.7839 26.24C78.9039 25.56 80.2039 25.22 81.6839 25.22ZM94.1175 25.34H95.6175V41H94.1175V25.34ZM94.8675 21.53C94.5275 21.53 94.2375 21.42 93.9975 21.2C93.7575 20.96 93.6375 20.67 93.6375 20.33C93.6375 19.99 93.7575 19.7 93.9975 19.46C94.2375 19.22 94.5275 19.1 94.8675 19.1C95.2075 19.1 95.4975 19.22 95.7375 19.46C95.9775 19.68 96.0975 19.96 96.0975 20.3C96.0975 20.64 95.9775 20.93 95.7375 21.17C95.4975 21.41 95.2075 21.53 94.8675 21.53ZM109.59 25.22C111.55 25.22 113.1 25.79 114.24 26.93C115.38 28.07 115.95 29.71 115.95 31.85V41H114.45V31.97C114.45 30.21 114 28.87 113.1 27.95C112.22 27.03 110.98 26.57 109.38 26.57C107.54 26.57 106.09 27.12 105.03 28.22C103.97 29.32 103.44 30.8 103.44 32.66V41H101.94V25.34H103.38V28.73C103.92 27.63 104.72 26.77 105.78 26.15C106.86 25.53 108.13 25.22 109.59 25.22ZM128.275 41.12C126.795 41.12 125.455 40.78 124.255 40.1C123.075 39.42 122.145 38.48 121.465 37.28C120.785 36.06 120.445 34.69 120.445 33.17C120.445 31.65 120.785 30.29 121.465 29.09C122.145 27.87 123.075 26.92 124.255 26.24C125.455 25.56 126.795 25.22 128.275 25.22C129.755 25.22 131.085 25.56 132.265 26.24C133.465 26.92 134.405 27.87 135.085 29.09C135.765 30.29 136.105 31.65 136.105 33.17C136.105 34.69 135.765 36.06 135.085 37.28C134.405 38.48 133.465 39.42 132.265 40.1C131.085 40.78 129.755 41.12 128.275 41.12ZM128.275 39.77C129.475 39.77 130.545 39.49 131.485 38.93C132.445 38.37 133.195 37.59 133.735 36.59C134.295 35.59 134.575 34.45 134.575 33.17C134.575 31.89 134.295 30.75 133.735 29.75C133.195 28.75 132.445 27.97 131.485 27.41C130.545 26.85 129.475 26.57 128.275 26.57C127.075 26.57 125.995 26.85 125.035 27.41C124.095 27.97 123.345 28.75 122.785 29.75C122.245 30.75 121.975 31.89 121.975 33.17C121.975 34.45 122.245 35.59 122.785 36.59C123.345 37.59 124.095 38.37 125.035 38.93C125.995 39.49 127.075 39.77 128.275 39.77Z" fill="white"/>
</svg>
